<svg width="64" height="64" viewBox="0 0 64 64" fill="none" xmlns="http://www.w3.org/2000/svg">
<circle cx="32" cy="32" r="32" fill="white"/>
<path d="M31.9994 33.0029C39.0227 33.0029 44.7162 27.4517 44.7162 20.604C44.7162 13.7563 39.0227 8.20514 31.9994 8.20514C24.9761 8.20514 19.2826 13.7563 19.2826 20.604C19.2826 27.4517 24.9761 33.0029 31.9994 33.0029Z" fill="url(#paint0_linear)"/>
<path d="M31.9994 39.2023C21.5982 39.2023 12.3636 44.0723 6.56348 51.6012C12.3636 59.13 21.5982 64 31.9994 64C42.4005 64 51.6351 59.13 57.4353 51.6012C51.6351 44.0723 42.4005 39.2023 31.9994 39.2023Z" fill="url(#paint1_linear)"/>
<defs>
<linearGradient id="paint0_linear" x1="31.9693" y1="63.934" x2="31.9693" y2="8.20514" gradientUnits="userSpaceOnUse">
<stop stop-color="#3088C8"/>
<stop offset="1" stop-color="#51C8EC"/>
</linearGradient>
<linearGradient id="paint1_linear" x1="31.9693" y1="63.934" x2="31.9693" y2="8.20514" gradientUnits="userSpaceOnUse">
<stop stop-color="#3088C8"/>
<stop offset="1" stop-color="#51C8EC"/>
</linearGradient>
</defs>
</svg>
